<mxfile host="app.diagrams.net" agent="Mozilla/5.0 (Macintosh; Intel Mac OS X 10_15_7) AppleWebKit/537.36 (KHTML, like Gecko) Chrome/133.0.0.0 Safari/537.36" version="26.0.11">
  <diagram name="Page-1" id="uayYGfWNwqsQkE3lxRE-">
    <mxGraphModel dx="1067" dy="1465" grid="1" gridSize="10" guides="1" tooltips="1" connect="1" arrows="1" fold="1" page="1" pageScale="1" pageWidth="827" pageHeight="1169" math="0" shadow="0">
      <root>
        <mxCell id="0" />
        <mxCell id="1" parent="0" />
        <mxCell id="HIXaqfUQ-NH231my-G76-9" style="edgeStyle=orthogonalEdgeStyle;rounded=0;orthogonalLoop=1;jettySize=auto;html=1;exitX=0;exitY=0.5;exitDx=0;exitDy=0;entryX=0.5;entryY=0;entryDx=0;entryDy=0;" edge="1" parent="1" source="HIXaqfUQ-NH231my-G76-1" target="HIXaqfUQ-NH231my-G76-2">
          <mxGeometry relative="1" as="geometry" />
        </mxCell>
        <mxCell id="HIXaqfUQ-NH231my-G76-1" value="CloudFront" style="rounded=1;whiteSpace=wrap;html=1;" vertex="1" parent="1">
          <mxGeometry x="390" y="270" width="120" height="60" as="geometry" />
        </mxCell>
        <mxCell id="HIXaqfUQ-NH231my-G76-2" value="S3" style="ellipse;whiteSpace=wrap;html=1;" vertex="1" parent="1">
          <mxGeometry x="150" y="430" width="120" height="80" as="geometry" />
        </mxCell>
        <mxCell id="HIXaqfUQ-NH231my-G76-4" value="Static Content" style="text;html=1;align=center;verticalAlign=middle;resizable=0;points=[];autosize=1;strokeColor=none;fillColor=none;" vertex="1" parent="1">
          <mxGeometry x="110" y="370" width="100" height="30" as="geometry" />
        </mxCell>
        <mxCell id="HIXaqfUQ-NH231my-G76-11" style="edgeStyle=orthogonalEdgeStyle;rounded=0;orthogonalLoop=1;jettySize=auto;html=1;exitX=0.5;exitY=1;exitDx=0;exitDy=0;entryX=0.5;entryY=0;entryDx=0;entryDy=0;" edge="1" parent="1" source="HIXaqfUQ-NH231my-G76-5" target="HIXaqfUQ-NH231my-G76-10">
          <mxGeometry relative="1" as="geometry" />
        </mxCell>
        <mxCell id="HIXaqfUQ-NH231my-G76-5" value="Load Balancer" style="rounded=1;whiteSpace=wrap;html=1;" vertex="1" parent="1">
          <mxGeometry x="390" y="430" width="120" height="60" as="geometry" />
        </mxCell>
        <mxCell id="HIXaqfUQ-NH231my-G76-7" value="" style="endArrow=classic;html=1;rounded=0;exitX=0.5;exitY=1;exitDx=0;exitDy=0;entryX=0.5;entryY=0;entryDx=0;entryDy=0;" edge="1" parent="1" source="HIXaqfUQ-NH231my-G76-1" target="HIXaqfUQ-NH231my-G76-5">
          <mxGeometry width="50" height="50" relative="1" as="geometry">
            <mxPoint x="530" y="770" as="sourcePoint" />
            <mxPoint x="580" y="720" as="targetPoint" />
          </mxGeometry>
        </mxCell>
        <mxCell id="HIXaqfUQ-NH231my-G76-10" value="API Gateway" style="rounded=1;whiteSpace=wrap;html=1;" vertex="1" parent="1">
          <mxGeometry x="390" y="590" width="120" height="60" as="geometry" />
        </mxCell>
        <mxCell id="HIXaqfUQ-NH231my-G76-12" value="User/Auth Service" style="rounded=1;whiteSpace=wrap;html=1;" vertex="1" parent="1">
          <mxGeometry x="160" y="960" width="120" height="60" as="geometry" />
        </mxCell>
        <mxCell id="HIXaqfUQ-NH231my-G76-13" value="Catalog/Product Service" style="rounded=1;whiteSpace=wrap;html=1;" vertex="1" parent="1">
          <mxGeometry x="354" y="960" width="120" height="60" as="geometry" />
        </mxCell>
        <mxCell id="HIXaqfUQ-NH231my-G76-14" value="Order Service" style="rounded=1;whiteSpace=wrap;html=1;" vertex="1" parent="1">
          <mxGeometry x="550" y="960" width="120" height="60" as="geometry" />
        </mxCell>
        <mxCell id="HIXaqfUQ-NH231my-G76-15" value="Payment Service" style="rounded=1;whiteSpace=wrap;html=1;" vertex="1" parent="1">
          <mxGeometry x="750" y="960" width="120" height="60" as="geometry" />
        </mxCell>
        <mxCell id="HIXaqfUQ-NH231my-G76-16" value="Notification Service" style="rounded=1;whiteSpace=wrap;html=1;" vertex="1" parent="1">
          <mxGeometry x="950" y="960" width="120" height="60" as="geometry" />
        </mxCell>
        <mxCell id="HIXaqfUQ-NH231my-G76-17" value="BFF" style="rounded=1;whiteSpace=wrap;html=1;" vertex="1" parent="1">
          <mxGeometry x="390" y="730" width="120" height="60" as="geometry" />
        </mxCell>
        <mxCell id="HIXaqfUQ-NH231my-G76-18" value="BFF" style="rounded=1;whiteSpace=wrap;html=1;" vertex="1" parent="1">
          <mxGeometry x="400" y="740" width="120" height="60" as="geometry" />
        </mxCell>
        <mxCell id="HIXaqfUQ-NH231my-G76-19" value="BFF" style="rounded=1;whiteSpace=wrap;html=1;" vertex="1" parent="1">
          <mxGeometry x="410" y="750" width="120" height="60" as="geometry" />
        </mxCell>
        <mxCell id="HIXaqfUQ-NH231my-G76-20" value="BFF" style="rounded=1;whiteSpace=wrap;html=1;" vertex="1" parent="1">
          <mxGeometry x="420" y="760" width="120" height="60" as="geometry" />
        </mxCell>
        <mxCell id="HIXaqfUQ-NH231my-G76-21" value="User/Auth Service" style="rounded=1;whiteSpace=wrap;html=1;" vertex="1" parent="1">
          <mxGeometry x="170" y="970" width="120" height="60" as="geometry" />
        </mxCell>
        <mxCell id="HIXaqfUQ-NH231my-G76-22" value="User/Auth Service" style="rounded=1;whiteSpace=wrap;html=1;" vertex="1" parent="1">
          <mxGeometry x="180" y="980" width="120" height="60" as="geometry" />
        </mxCell>
        <mxCell id="HIXaqfUQ-NH231my-G76-23" value="Catalog/Product Service" style="rounded=1;whiteSpace=wrap;html=1;" vertex="1" parent="1">
          <mxGeometry x="364" y="970" width="120" height="60" as="geometry" />
        </mxCell>
        <mxCell id="HIXaqfUQ-NH231my-G76-24" value="Catalog/Product Service" style="rounded=1;whiteSpace=wrap;html=1;" vertex="1" parent="1">
          <mxGeometry x="374" y="980" width="120" height="60" as="geometry" />
        </mxCell>
        <mxCell id="HIXaqfUQ-NH231my-G76-25" value="Order Service" style="rounded=1;whiteSpace=wrap;html=1;" vertex="1" parent="1">
          <mxGeometry x="560" y="970" width="120" height="60" as="geometry" />
        </mxCell>
        <mxCell id="HIXaqfUQ-NH231my-G76-26" value="Order Service" style="rounded=1;whiteSpace=wrap;html=1;" vertex="1" parent="1">
          <mxGeometry x="570" y="980" width="120" height="60" as="geometry" />
        </mxCell>
        <mxCell id="HIXaqfUQ-NH231my-G76-27" value="Payment Service" style="rounded=1;whiteSpace=wrap;html=1;" vertex="1" parent="1">
          <mxGeometry x="760" y="970" width="120" height="60" as="geometry" />
        </mxCell>
        <mxCell id="HIXaqfUQ-NH231my-G76-28" value="Payment Service" style="rounded=1;whiteSpace=wrap;html=1;" vertex="1" parent="1">
          <mxGeometry x="770" y="980" width="120" height="60" as="geometry" />
        </mxCell>
        <mxCell id="HIXaqfUQ-NH231my-G76-29" value="Notification Service" style="rounded=1;whiteSpace=wrap;html=1;" vertex="1" parent="1">
          <mxGeometry x="960" y="970" width="120" height="60" as="geometry" />
        </mxCell>
        <mxCell id="HIXaqfUQ-NH231my-G76-30" value="Notification Service" style="rounded=1;whiteSpace=wrap;html=1;" vertex="1" parent="1">
          <mxGeometry x="970" y="980" width="120" height="60" as="geometry" />
        </mxCell>
      </root>
    </mxGraphModel>
  </diagram>
</mxfile>
